nColumns=19
nRows=66
DataType=double
version=3
OpenSimVersion=4.1
endheader
time	ground_force_calcn_l_vx	ground_force_calcn_l_vy	ground_force_calcn_l_vz	ground_force_calcn_l_px	ground_force_calcn_l_py	ground_force_calcn_l_pz	ground_force_calcn_l_mx	ground_force_calcn_l_my	ground_force_calcn_l_mz	ground_force_calcn_r_vx	ground_force_calcn_r_vy	ground_force_calcn_r_vz	ground_force_calcn_r_px	ground_force_calcn_r_py	ground_force_calcn_r_pz	ground_force_calcn_r_mx	ground_force_calcn_r_my	ground_force_calcn_r_mz
2.42501	6.45983	389.008	23.9796	-0.240207	-2.68017e-17	0.204772	-0.125956	-7.585	-0.467562	-15.4013	391.152	-20.4021	-0.22715	-2.52577e-17	-0.145092	-0.103503	2.6287	-0.13711
2.43499	6.31639	390.832	23.9716	-0.240083	-2.67854e-17	0.204426	-0.121339	-7.50794	-0.460498	-15.2778	394.209	-19.5469	-0.226547	-2.51923e-17	-0.145505	-0.112629	2.90615	-0.144102
2.44497	6.20475	392.135	23.9081	-0.23998	-2.67715e-17	0.204129	-0.117641	-7.43481	-0.453293	-15.3009	396.674	-18.7142	-0.225965	-2.51287e-17	-0.145946	-0.121332	3.14551	-0.148399
2.45495	6.10075	392.936	23.7807	-0.239891	-2.67594e-17	0.20387	-0.114575	-7.37954	-0.446613	-15.4679	398.506	-17.932	-0.225411	-2.50677e-17	-0.146402	-0.130265	3.35608	-0.151017
2.46493	6.00613	393.252	23.5718	-0.239814	-2.67489e-17	0.203638	-0.112156	-7.34345	-0.440172	-15.762	399.69	-17.2044	-0.224882	-2.50092e-17	-0.146869	-0.139297	3.53225	-0.152043
2.47491	5.92765	393.13	23.2944	-0.239738	-2.67389e-17	0.203443	-0.110532	-7.33062	-0.434367	-16.1302	400.236	-16.5145	-0.22436	-2.4951e-17	-0.14733	-0.147825	3.66794	-0.151346
2.48489	5.8312	392.605	22.9615	-0.239672	-2.67306e-17	0.203292	-0.109175	-7.35059	-0.4299	-16.5336	400.156	-15.8633	-0.223867	-2.48958e-17	-0.147773	-0.155972	3.77492	-0.149649
2.49487	5.69958	391.694	22.5732	-0.239639	-2.67261e-17	0.203165	-0.107561	-7.39194	-0.425995	-16.9332	399.488	-15.2334	-0.223427	-2.48462e-17	-0.148182	-0.163352	3.85378	-0.146953
2.50485	5.55074	390.414	22.1161	-0.239641	-2.67254e-17	0.203054	-0.105831	-7.44369	-0.42167	-17.2916	398.292	-14.6273	-0.222996	-2.47975e-17	-0.14855	-0.169597	3.90646	-0.143465
2.51483	5.39408	388.785	21.5763	-0.239686	-2.67292e-17	0.202944	-0.103933	-7.49111	-0.415733	-17.6196	396.655	-14.0479	-0.222547	-2.47466e-17	-0.14888	-0.17483	3.93579	-0.13939
2.5248	5.22187	386.833	20.9608	-0.239758	-2.67356e-17	0.202836	-0.101673	-7.53187	-0.40812	-17.9527	394.635	-13.4948	-0.222109	-2.46971e-17	-0.149181	-0.179512	3.94602	-0.134936
2.53478	5.03361	384.601	20.2736	-0.239836	-2.67423e-17	0.202732	-0.0990579	-7.56867	-0.39897	-18.2873	392.286	-12.9601	-0.221678	-2.46479e-17	-0.149431	-0.183035	3.92634	-0.129716
2.54476	4.80733	382.145	19.4933	-0.239949	-2.67521e-17	0.202598	-0.095408	-7.58418	-0.386871	-18.6325	389.666	-12.4667	-0.221227	-2.45964e-17	-0.149621	-0.18501	3.86915	-0.123787
2.55474	4.5118	379.543	18.6141	-0.240076	-2.67626e-17	0.202426	-0.0901023	-7.57961	-0.37173	-19.0277	386.848	-12.0447	-0.220749	-2.4542e-17	-0.149764	-0.186456	3.79079	-0.118028
2.56472	4.13261	376.85	17.6334	-0.24019	-2.67706e-17	0.202217	-0.0828454	-7.55461	-0.353492	-19.516	383.867	-11.6999	-0.220254	-2.44857e-17	-0.149861	-0.18777	3.69331	-0.112569
2.5747	3.65172	374.121	16.5433	-0.240286	-2.67757e-17	0.201946	-0.0733295	-7.51267	-0.332204	-20.0904	380.769	-11.4195	-0.219732	-2.44263e-17	-0.149893	-0.188425	3.57119	-0.107102
2.58468	3.05165	371.39	15.3572	-0.240395	-2.67815e-17	0.201604	-0.0613756	-7.46949	-0.308867	-20.7416	377.626	-11.2069	-0.219203	-2.43664e-17	-0.14986	-0.188159	3.42566	-0.101665
2.59466	2.33922	368.697	14.0818	-0.240522	-2.67887e-17	0.201185	-0.0471283	-7.42816	-0.283707	-21.4568	374.518	-11.0523	-0.218711	-2.43103e-17	-0.149785	-0.186647	3.25784	-0.0961416
2.60464	1.56616	366.048	12.7604	-0.240638	-2.67945e-17	0.200728	-0.0316496	-7.39726	-0.257868	-22.1921	371.522	-10.944	-0.218269	-2.42599e-17	-0.149681	-0.183947	3.07949	-0.090713
2.61462	0.783585	363.428	11.4545	-0.240743	-2.67989e-17	0.200274	-0.0159147	-7.38128	-0.232643	-22.9065	368.718	-10.8477	-0.217878	-2.42149e-17	-0.149574	-0.179633	2.89149	-0.0850678
2.6246	0.0296729	360.822	10.2206	-0.240902	-2.68098e-17	0.199841	-0.000606845	-7.37923	-0.209022	-23.5729	366.169	-10.7117	-0.217544	-2.41762e-17	-0.149503	-0.173576	2.69623	-0.0788742
2.63458	-0.61327	358.27	9.11447	-0.241156	-2.68319e-17	0.199475	0.0126517	-7.39111	-0.188031	-24.1416	363.905	-10.4941	-0.217253	-2.4142e-17	-0.149476	-0.166052	2.50304	-0.0721815
2.64456	-1.09782	355.845	8.16241	-0.241482	-2.68629e-17	0.199186	0.0228486	-7.40609	-0.169882	-24.5843	361.913	-10.1896	-0.217028	-2.4115e-17	-0.149495	-0.157565	2.31957	-0.0653069
2.65454	-1.40653	353.654	7.39889	-0.241838	-2.68981e-17	0.198993	0.0295365	-7.42657	-0.155373	-24.8987	360.187	-9.79985	-0.21682	-2.409e-17	-0.149581	-0.149813	2.16721	-0.0589648
2.66452	-1.51817	351.789	6.85761	-0.242226	-2.69383e-17	0.198927	0.0321342	-7.4461	-0.145151	-25.0695	358.728	-9.32242	-0.216583	-2.40621e-17	-0.149736	-0.143663	2.05572	-0.053423
2.6745	-1.4276	350.332	6.52839	-0.242659	-2.69845e-17	0.198979	0.0303565	-7.44946	-0.13882	-25.0777	357.533	-8.75527	-0.216353	-2.40351e-17	-0.149937	-0.138966	1.98124	-0.0485166
2.68448	-1.14745	349.332	6.39896	-0.243143	-2.70376e-17	0.199146	0.0244415	-7.44104	-0.136303	-24.9327	356.578	-8.12198	-0.216174	-2.4014e-17	-0.150175	-0.136571	1.95319	-0.0444888
2.69446	-0.696874	348.815	6.43059	-0.243687	-2.70982e-17	0.199403	0.014816	-7.41604	-0.136719	-24.6448	355.846	-7.43465	-0.216025	-2.39964e-17	-0.150441	-0.136141	1.96573	-0.0410699
2.70444	-0.101343	348.796	6.58018	-0.244232	-2.71594e-17	0.199729	0.00214235	-7.37341	-0.139103	-24.2036	355.308	-6.72706	-0.215871	-2.39783e-17	-0.150718	-0.136626	2.00567	-0.0379734
2.71441	0.610053	349.268	6.81248	-0.244734	-2.72163e-17	0.200117	-0.0127812	-7.31751	-0.142728	-23.6092	354.913	-6.03137	-0.215727	-2.39615e-17	-0.150978	-0.137693	2.06992	-0.0351761
2.72439	1.3927	350.169	7.07879	-0.24522	-2.72713e-17	0.200527	-0.0287896	-7.23862	-0.146331	-22.8943	354.594	-5.37996	-0.215634	-2.39504e-17	-0.151196	-0.138772	2.14934	-0.0326102
2.73437	2.23718	351.418	7.32609	-0.245699	-2.7325e-17	0.200932	-0.0454244	-7.13529	-0.148751	-22.0785	354.301	-4.80693	-0.215575	-2.39432e-17	-0.151362	-0.139973	2.24619	-0.0304749
2.74435	3.11029	352.948	7.50486	-0.246124	-2.73721e-17	0.201317	-0.0617787	-7.01049	-0.149067	-21.1859	353.981	-4.33355	-0.215547	-2.39395e-17	-0.151465	-0.140754	2.35177	-0.0287911
2.75433	3.95318	354.711	7.5749	-0.246462	-2.74087e-17	0.201672	-0.0765815	-6.87151	-0.146742	-20.2747	353.569	-3.97666	-0.215564	-2.39411e-17	-0.151496	-0.14096	2.4582	-0.0276478
2.76431	4.70918	356.649	7.51484	-0.246731	-2.74367e-17	0.201983	-0.0887753	-6.72337	-0.141666	-19.3741	352.992	-3.75246	-0.215651	-2.39506e-17	-0.151444	-0.140752	2.56446	-0.0272614
2.77429	5.33927	358.71	7.30354	-0.246982	-2.7462e-17	0.20222	-0.09782	-6.57188	-0.133807	-18.4953	352.226	-3.64907	-0.215779	-2.39649e-17	-0.151312	-0.139253	2.65193	-0.0274741
2.78427	5.80983	360.86	6.94738	-0.247244	-2.74877e-17	0.202372	-0.103432	-6.42434	-0.123683	-17.6409	351.27	-3.65092	-0.215911	-2.39799e-17	-0.151112	-0.137079	2.72953	-0.0283693
2.79425	6.07927	363.085	6.44909	-0.247486	-2.75105e-17	0.202411	-0.105074	-6.27557	-0.111466	-16.7985	350.132	-3.73346	-0.216048	-2.39957e-17	-0.150863	-0.134848	2.81065	-0.02997
2.80423	6.10914	365.356	5.83215	-0.247695	-2.75293e-17	0.202307	-0.102307	-6.11847	-0.0976685	-15.957	348.817	-3.87056	-0.216201	-2.40133e-17	-0.150568	-0.132092	2.88751	-0.0320405
2.81421	5.87152	367.637	5.14077	-0.2479	-2.75476e-17	0.202059	-0.0952474	-5.96378	-0.0833933	-15.114	347.366	-4.0561	-0.216321	-2.40275e-17	-0.150241	-0.129268	2.97098	-0.0346913
2.82419	5.37677	369.904	4.42387	-0.248103	-2.75659e-17	0.201689	-0.084523	-5.8149	-0.0695433	-14.2831	345.808	-4.26476	-0.216405	-2.40379e-17	-0.14989	-0.125848	3.04689	-0.0375766
2.83417	4.66407	372.132	3.71972	-0.248262	-2.75795e-17	0.201231	-0.0710099	-5.66567	-0.0566324	-13.4672	344.159	-4.48582	-0.216505	-2.40499e-17	-0.149516	-0.121414	3.10277	-0.0404421
2.84415	3.76736	374.283	3.05146	-0.248373	-2.75883e-17	0.200716	-0.0556332	-5.52711	-0.0450614	-12.6875	342.42	-4.73111	-0.21664	-2.40659e-17	-0.149121	-0.116234	3.13702	-0.0433432
2.85413	2.72442	376.325	2.43194	-0.248454	-2.75943e-17	0.200171	-0.0390986	-5.40071	-0.0349012	-11.9788	340.627	-4.98509	-0.216782	-2.40826e-17	-0.148717	-0.110467	3.14122	-0.045972
2.86411	1.60239	378.259	1.84785	-0.24849	-2.75955e-17	0.199638	-0.0223962	-5.28681	-0.0258268	-11.3643	338.814	-5.24636	-0.216934	-2.41003e-17	-0.148322	-0.104623	3.11923	-0.0482996
2.87409	0.457969	380.11	1.28128	-0.248478	-2.75917e-17	0.199155	-0.00625169	-5.18884	-0.0174907	-10.8498	336.998	-5.50159	-0.217108	-2.41204e-17	-0.147931	-0.0991113	3.07843	-0.0502562
2.88407	-0.668265	381.891	0.711756	-0.248422	-2.75832e-17	0.19873	0.00893742	-5.10744	-0.00951907	-10.4514	335.203	-5.76196	-0.217311	-2.41436e-17	-0.147542	-0.09424	3.02253	-0.0519556
2.89405	-1.7309	383.619	0.132032	-0.248341	-2.75719e-17	0.198365	0.0227707	-5.04665	-0.00173693	-10.161	333.479	-6.03651	-0.217496	-2.41648e-17	-0.147169	-0.090205	2.96047	-0.0535893
2.90402	-2.69538	385.318	-0.451908	-0.248274	-2.75622e-17	0.19805	0.034929	-4.99326	0.00585619	-9.97637	331.856	-6.32037	-0.217652	-2.41827e-17	-0.146839	-0.0873052	2.90414	-0.0553108
2.914	-3.54603	387.025	-1.03608	-0.248227	-2.75549e-17	0.197782	0.0453303	-4.9475	0.0132447	-9.88122	330.374	-6.60887	-0.217806	-2.42005e-17	-0.146558	-0.0854302	2.85632	-0.0571384
2.92398	-4.27265	388.747	-1.61765	-0.24819	-2.75488e-17	0.197575	0.0541337	-4.92535	0.0204953	-9.8469	329.049	-6.89744	-0.217967	-2.42191e-17	-0.146326	-0.0840644	2.80914	-0.0588845
2.93396	-4.84911	390.48	-2.20544	-0.248162	-2.75436e-17	0.197414	0.0610547	-4.9165	0.0277685	-9.85435	327.871	-7.20207	-0.218111	-2.42357e-17	-0.146143	-0.0827359	2.75277	-0.0604677
2.94394	-5.26642	392.223	-2.78802	-0.248131	-2.75381e-17	0.197305	0.0661272	-4.9249	0.0350075	-9.91322	326.81	-7.53983	-0.218239	-2.42506e-17	-0.145993	-0.0817778	2.69598	-0.0621988
2.95392	-5.53216	393.962	-3.35518	-0.248068	-2.75292e-17	0.197249	0.0695159	-4.95044	0.0421604	-10.0492	325.835	-7.90812	-0.218419	-2.42711e-17	-0.145866	-0.0810033	2.62643	-0.0637445
2.9639	-5.64373	395.664	-3.91044	-0.247988	-2.75184e-17	0.197246	0.0711262	-4.98643	0.0492821	-10.2533	324.915	-8.29738	-0.218652	-2.42974e-17	-0.145759	-0.0801412	2.53958	-0.0648535
2.97388	-5.5901	397.314	-4.45491	-0.247908	-2.75076e-17	0.197296	0.0707803	-5.03068	0.0564069	-10.5034	324.054	-8.68483	-0.218906	-2.43258e-17	-0.145684	-0.0790025	2.43741	-0.0653238
2.98386	-5.39912	398.899	-4.99704	-0.247826	-2.74965e-17	0.197378	0.0686967	-5.07547	0.0635808	-10.7841	323.281	-9.04738	-0.219215	-2.43602e-17	-0.145648	-0.0778022	2.33233	-0.0652728
2.99384	-5.10571	400.412	-5.52395	-0.247739	-2.7485e-17	0.197482	0.065325	-5.12306	0.0706761	-11.0388	322.671	-9.34614	-0.219571	-2.43996e-17	-0.145649	-0.0765571	2.23781	-0.064818
3.00382	-4.74676	401.824	-6.01255	-0.247678	-2.74764e-17	0.197583	0.0609435	-5.159	0.0771949	-11.2041	322.293	-9.53726	-0.219924	-2.44385e-17	-0.145687	-0.0749821	2.15692	-0.0638272
3.0138	-4.3748	403.122	-6.44037	-0.247655	-2.74725e-17	0.197651	0.0561489	-5.17392	0.0826597	-11.2335	322.208	-9.57469	-0.220242	-2.44732e-17	-0.145781	-0.073125	2.09744	-0.0623271
3.02378	-4.01501	404.29	-6.77833	-0.247664	-2.74725e-17	0.197683	0.0513424	-5.1699	0.0866786	-11.1159	322.419	-9.43882	-0.220518	-2.45031e-17	-0.145931	-0.0709236	2.05716	-0.0602234
3.03376	-3.68255	405.308	-7.03404	-0.247676	-2.74731e-17	0.197675	0.0467634	-5.14686	0.0893228	-10.8609	322.9	-9.13328	-0.220728	-2.45254e-17	-0.146134	-0.0681899	2.02733	-0.0573431
3.04374	-3.38447	406.151	-7.2083	-0.247647	-2.74695e-17	0.197629	0.0426775	-5.12149	0.0908954	-10.5138	323.594	-8.68136	-0.220823	-2.45348e-17	-0.146397	-0.0651929	2.00652	-0.0538307
3.05372	-3.14474	406.809	-7.3091	-0.247554	-2.7459e-17	0.197537	0.0394169	-5.09905	0.0916141	-10.1276	324.453	-8.10769	-0.220801	-2.4531e-17	-0.146731	-0.0624483	2.00063	-0.0499933
3.0637	-2.97598	407.268	-7.34943	-0.247386	-2.74404e-17	0.197405	0.0371207	-5.08003	0.0916726	-9.73766	325.42	-7.44557	-0.220704	-2.45187e-17	-0.147117	-0.0600389	2.00643	-0.0459067
3.07368	-2.90066	407.505	-7.33389	-0.247125	-2.74116e-17	0.197223	0.0360275	-5.0614	0.0910904	-9.35057	326.481	-6.7213	-0.22057	-2.45024e-17	-0.147526	-0.0580376	2.02642	-0.0417181
